<svg width="60" height="60" viewBox="0 0 60 60" fill="none" xmlns="http://www.w3.org/2000/svg">
<g clip-path="url(#clip0_550_288)">
<path d="M30.027 24.8636C32.8917 24.8531 35.1732 22.552 35.1628 19.6812C35.1524 16.8092 32.8659 14.5239 30 14.5215C27.1102 14.5184 24.8023 16.846 24.8244 19.7438C24.8459 22.6041 27.1532 24.874 30.027 24.8636Z" fill="#E37100"/>
<path d="M30 0C13.4314 0 0 13.432 0 30C0 46.568 13.4314 60 30 60C46.5686 60 60 46.568 60 30C60 13.432 46.5686 0 30 0ZM30.043 9.12307C35.8864 9.13903 40.5766 13.9188 40.5465 19.8267C40.517 25.5984 35.7502 30.2762 29.9165 30.2566C24.1424 30.2369 19.4069 25.4498 19.4412 19.6665C19.4738 13.8199 24.2118 9.10711 30.043 9.12307ZM41.8785 34.4084C40.5864 35.7348 39.031 36.6948 37.3037 37.3645C35.671 37.9973 33.8817 38.3159 32.1103 38.5283C32.3785 38.8192 32.5043 38.9622 32.6713 39.1292C35.075 41.5458 37.4903 43.9501 39.886 46.3734C40.7024 47.1996 40.8724 48.2234 40.4231 49.1828C39.9327 50.2324 38.8321 50.9223 37.7524 50.8481C37.0686 50.8008 36.5352 50.4614 36.062 49.9844C34.2476 48.159 32.3988 46.366 30.6224 44.5062C30.1037 43.9648 29.8558 44.0679 29.3985 44.5381C27.5736 46.4176 25.7187 48.267 23.8533 50.1066C23.0154 50.9328 22.0186 51.0826 21.0463 50.6099C20.0133 50.1103 19.3565 49.0551 19.4069 47.9939C19.4425 47.2782 19.7948 46.7294 20.2871 46.2396C22.6668 43.8648 25.0392 41.4826 27.4122 39.1022C27.5699 38.9444 27.716 38.7769 27.945 38.5314C24.7083 38.1931 21.7897 37.3964 19.2908 35.4427C18.9803 35.1996 18.6605 34.9651 18.3781 34.6926C17.2837 33.6424 17.1738 32.4387 18.0387 31.2C18.7795 30.1393 20.0219 29.8558 21.314 30.4653C21.5644 30.5825 21.8026 30.731 22.0309 30.8882C26.6873 34.088 33.0844 34.1758 37.7592 31.0312C38.222 30.6776 38.7173 30.3867 39.2913 30.24C40.4059 29.9527 41.447 30.3634 42.0448 31.3393C42.7292 32.4546 42.7212 33.5423 41.8785 34.4084Z" fill="#E37100"/>
</g>
<defs>
<clipPath id="clip0_550_288">
<rect width="60" height="60" fill="white"/>
</clipPath>
</defs>
</svg>
