<svg width="214" height="28" viewBox="0 0 214 28" fill="none" xmlns="http://www.w3.org/2000/svg">
<path d="M0.0015626 27.1992V-0.000781536H32.0416C37.3749 -0.000781536 41.1482 0.905885 43.3616 2.71922C45.5749 4.50588 46.6816 7.22588 46.6816 10.8792C46.6816 17.7592 41.8016 21.1992 32.0416 21.1992H11.1216V27.1992H0.0015626ZM31.0816 9.03922H11.1216V13.1192H31.0816C32.7882 13.1192 33.9349 12.9459 34.5216 12.5992C35.1082 12.2526 35.4016 11.7592 35.4016 11.1192C35.4016 10.4526 35.0816 9.94588 34.4416 9.59922C33.8282 9.22588 32.7082 9.03922 31.0816 9.03922ZM61.395 -0.000781536V27.1992H50.275V-0.000781536H61.395ZM119.933 0.359219L102.013 13.4392V13.4792L120.373 26.8392V27.1992H102.933L92.3725 19.1992H92.2925L81.7325 27.1992H64.2925V26.8392L82.6525 13.4792V13.4392L64.7325 0.359219V-0.000781536H82.1325L92.2925 7.71922H92.3725L102.533 -0.000781536H119.933V0.359219ZM167.284 17.1592H134.364V19.5192H169.124V27.1992H123.244V-0.000781536H169.124V7.67922H134.364V10.0392H167.284V17.1592ZM184.442 -0.000781536V18.1592H213.522V27.1992H173.322V-0.000781536H184.442Z" fill="#272727"/>
</svg>
