<svg width="60" height="61" viewBox="0 0 60 61" fill="none" xmlns="http://www.w3.org/2000/svg">
<path d="M29.9992 1.2207C14.0932 1.2207 1.19922 14.3296 1.19922 30.5007C1.19922 46.6718 14.0932 59.7807 29.9992 59.7807C45.9052 59.7807 58.7992 46.6718 58.7992 30.5007C58.7992 14.3296 45.9052 1.2207 29.9992 1.2207ZM41.0752 34.2553C41.0752 34.2553 43.6222 36.8112 44.2492 37.9976C44.2672 38.022 44.2762 38.0464 44.2822 38.0586C44.5372 38.4948 44.5972 38.8333 44.4712 39.0864C44.2612 39.5074 43.5412 39.7148 43.2952 39.7331H38.7952C38.4832 39.7331 37.8292 39.6507 37.0372 39.0956C36.4282 38.6625 35.8282 37.9519 35.2432 37.2595C34.3702 36.2286 33.6142 35.338 32.8522 35.338C32.7554 35.3378 32.6592 35.3533 32.5672 35.3838C31.9912 35.5728 31.2532 36.4086 31.2532 38.6351C31.2532 39.3305 30.7132 39.73 30.3322 39.73H28.2712C27.5692 39.73 23.9122 39.4799 20.6722 36.006C16.7062 31.7512 13.1362 23.2173 13.1062 23.138C12.8812 22.586 13.3462 22.2901 13.8532 22.2901H18.3982C19.0042 22.2901 19.2022 22.6653 19.3402 22.9977C19.5022 23.385 20.0962 24.9253 21.0712 26.6577C22.6522 29.482 23.6212 30.6288 24.3982 30.6288C24.5439 30.6271 24.687 30.5894 24.8152 30.519C25.8292 29.9456 25.6402 26.2703 25.5952 25.5079C25.5952 25.3645 25.5922 23.8639 25.0732 23.1441C24.7012 22.6226 24.0682 22.4243 23.6842 22.3511C23.8396 22.1331 24.0444 21.9563 24.2812 21.8357C24.9772 21.4819 26.2312 21.43 27.4762 21.43H28.1692C29.5192 21.4483 29.8672 21.5368 30.3562 21.6618C31.3462 21.9028 31.3672 22.5524 31.2802 24.7759C31.2532 25.4072 31.2262 26.1209 31.2262 26.9627C31.2262 27.1457 31.2172 27.3409 31.2172 27.5483C31.1872 28.6798 31.1512 29.9639 31.9372 30.4916C32.0397 30.5569 32.1582 30.5918 32.2792 30.5922C32.5522 30.5922 33.3742 30.5922 35.6002 26.7096C36.2867 25.4598 36.8833 24.1612 37.3852 22.8239C37.4302 22.7446 37.5622 22.5006 37.7182 22.406C37.8333 22.3463 37.961 22.316 38.0902 22.3176H43.4332C44.0152 22.3176 44.4142 22.406 44.4892 22.6348C44.6212 22.9977 44.4652 24.1049 42.0262 27.4629L40.9372 28.9239C38.7262 31.8702 38.7262 32.0196 41.0752 34.2553Z" fill="#4554FF"/>
</svg>
